<?xml version="1.0" encoding="UTF-8"?>
<svg width="20px" height="12px" viewBox="0 0 20 12" version="1.1" xmlns="http://www.w3.org/2000/svg" xmlns:xlink="http://www.w3.org/1999/xlink">
    <title>Be</title>
    <g id="Page-1" stroke="none" stroke-width="1" fill="none" fill-rule="evenodd">
        <g id="Desktop/Main-page" transform="translate(-30.000000, -621.000000)" fill-rule="nonzero">
            <g id="Bottom-bar-(Sticky)" transform="translate(30.000000, 615.000000)">
                <g id="Social-links" transform="translate(0.000000, 3.000000)">
                    <g id="Be" transform="translate(0.000000, 3.000000)">
                        <path d="M0.611899597,12 L6.39802218,12 C10.1118448,12 11.4000974,7.1704 8.11705212,5.4376 C10.3207065,3.5544 8.95657836,0 5.99987951,0 L0.611899597,0 C0.274131019,0 0,0.2688 0,0.6 L0,11.4 C0,11.7312 0.274131019,12 0.611899597,12 Z M1.22379919,1.2 L5.99987951,1.2 C8.61962565,1.2 8.62288912,5.0144 5.99987951,5.0144 L1.22379919,5.0144 L1.22379919,1.2 Z M1.22379919,6.2144 L6.39802218,6.2144 C9.54808131,6.2144 9.54808131,10.8 6.39802218,10.8 L1.22379919,10.8 L1.22379919,6.2144 Z" id="Shape" fill="#201E1E"></path>
                        <path d="M15.5025682,3 C12.9058878,3 10.9171445,5.33258548 11.0127572,7.16683119 C10.8159545,9.816028 12.92262,12 15.5025682,12 C17.1056737,12 18.6004183,11.1398187 19.4027678,9.75383649 C19.8035442,9.06165306 18.7725211,8.4510455 18.3725414,9.13999821 C17.7837268,10.1568698 16.6833845,10.7884771 15.5025682,10.7884771 C13.7600275,10.7884771 12.3433667,9.44126357 12.2158831,7.74270843 C13.3656253,7.75643902 15.5113327,7.59086422 19.3764743,7.71605492 C19.3892227,7.71605492 19.3979872,7.70959347 19.4099388,7.70959347 C21.0034831,7.63690209 19.2593488,3 15.5025682,3 Z M12.3728472,6.47141703 C13.3974962,3.41111011 17.7255625,3.50237817 18.6593794,6.52310868 C15.4212974,6.60145383 13.4835476,6.46980167 12.3728472,6.47141703 Z" id="Shape" fill="#000000"></path>
                        <path d="M17.4942245,2 C18.1689315,2 18.168252,1 17.4942245,1 L13.5057755,1 C12.8310685,1 12.831748,2 13.5057755,2 L17.4942245,2 Z" id="Path" fill="#000000"></path>
                    </g>
                </g>
            </g>
        </g>
    </g>
</svg>