<?xml version="1.0" encoding="UTF-8"?>
<svg width="16px" height="16px" viewBox="0 0 16 16" version="1.1" xmlns="http://www.w3.org/2000/svg" xmlns:xlink="http://www.w3.org/1999/xlink">
    <title>Group</title>
    <g id="Page-1" stroke="none" stroke-width="1" fill="none" fill-rule="evenodd">
        <g id="Desktop/Main-page" transform="translate(-1301.000000, -619.000000)" fill="#000000" fill-rule="nonzero">
            <g id="Bottom-bar-(Sticky)" transform="translate(30.000000, 615.000000)">
                <g id="Dark-and-lang" transform="translate(1271.000000, 0.000000)">
                    <g id="Group" transform="translate(0.000000, 4.000000)">
                        <path d="M15.8432007,9.98366182 C15.6975516,9.83836347 15.4813117,9.78980355 15.2875212,9.85887557 C12.683139,10.7874172 9.77685703,10.133034 7.8217901,8.1778792 C5.86672317,6.22272442 5.21250061,3.31644316 6.14120654,0.712149957 C6.21021268,0.518327259 6.16156518,0.302097 6.01619704,0.156502954 C5.8708289,0.0109089068 5.6546722,-0.0380765339 5.46073908,0.0306250424 C4.31039298,0.436840259 3.26646363,1.09723933 2.40663471,1.96267885 C-0.803069821,5.17476849 -0.802085715,10.3803233 2.40883308,13.5911991 C5.61975187,16.802075 10.8253763,16.8030591 14.0375088,13.5933975 C14.9030273,12.7334264 15.5634394,11.6893221 15.9695885,10.5388007 C16.0380303,10.3448647 15.988852,10.1288568 15.8432007,9.98366182 L15.8432007,9.98366182 Z" id="Path"></path>
                    </g>
                </g>
            </g>
        </g>
    </g>
</svg>