<?xml version="1.0" encoding="UTF-8"?>
<svg width="16px" height="16px" viewBox="0 0 16 16" version="1.1" xmlns="http://www.w3.org/2000/svg" xmlns:xlink="http://www.w3.org/1999/xlink">
    <title>Dribbble</title>
    <g id="Page-1" stroke="none" stroke-width="1" fill="none" fill-rule="evenodd">
        <g id="Desktop/Main-page" transform="translate(-80.000000, -619.000000)" fill="#201E1E" fill-rule="nonzero">
            <g id="Bottom-bar-(Sticky)" transform="translate(30.000000, 615.000000)">
                <g id="Social-links" transform="translate(0.000000, 3.000000)">
                    <g id="Dribbble" transform="translate(50.000000, 1.000000)">
                        <path d="M10.9133368,15.4441982 C10.9266832,15.4401988 10.9393623,15.4348663 10.9527087,15.4302004 C19.1040117,12.1953841 16.8491404,0 8.00782941,0 C3.5708246,0 0,3.61275589 0,7.99872153 C0,13.5491677 5.62816944,17.509868 10.9133368,15.4441982 Z M3.52411226,13.3705296 C4.09266815,12.4160155 5.93246695,9.72311258 9.07287072,8.79392777 C9.72951273,10.4663271 10.1899629,12.4173486 10.2353406,14.6296617 C7.85568065,15.4288673 5.34589345,14.8909533 3.52411226,13.3705296 Z M11.2196363,14.212395 C11.1322175,12.0867348 10.6977928,10.2017028 10.0785206,8.56863044 C11.467879,8.3519984 13.0761181,8.49664195 14.8999013,9.22652529 C14.5121888,11.4001779 13.1208285,13.2272192 11.2196363,14.212395 L11.2196363,14.212395 Z M15.0046704,8.19269053 C12.9960398,7.43881103 11.2256422,7.34482605 9.6934775,7.63677938 C9.45657921,7.10353128 9.20766918,6.59094654 8.94407813,6.11902197 C11.2950434,5.18117187 12.6844018,4.03802125 13.3063432,3.43278466 C14.4040831,4.70191514 15.0560539,6.34498586 15.0046704,8.19269053 L15.0046704,8.19269053 Z M12.5956483,2.72089844 C12.0297617,3.25881246 10.6971255,4.34530547 8.41823067,5.23383012 C7.30113846,3.46877891 6.10663724,2.22364459 5.34989736,1.52642269 C7.77093112,0.530581862 10.5629943,0.955847223 12.5956483,2.72089844 Z M4.39296175,2.01501127 C4.96418691,2.51693104 6.21807954,3.72207175 7.4279291,5.58577387 C5.76630449,6.12035509 3.68293421,6.51295901 1.14912352,6.5682835 C1.55218427,4.63925849 2.75602795,3.00485306 4.39296175,2.01501127 Z M1.02233289,7.57212305 C3.85843914,7.5261304 6.1540169,7.07886856 7.96845758,6.47363196 C8.21936957,6.91289509 8.45760249,7.39148526 8.68649295,7.88873911 C5.52673693,8.89391179 3.55213966,11.4888304 2.7960671,12.6606431 C1.57620776,11.3008604 0.903550085,9.52647735 1.02233289,7.57212305 Z" id="Shape"></path>
                    </g>
                </g>
            </g>
        </g>
    </g>
</svg>