<?xml version="1.0" encoding="UTF-8"?>
<svg width="18px" height="18px" viewBox="0 0 18 18" version="1.1" xmlns="http://www.w3.org/2000/svg" xmlns:xlink="http://www.w3.org/1999/xlink">
    <title>Github</title>
    <g id="Page-1" stroke="none" stroke-width="1" fill="none" fill-rule="evenodd">
        <g id="Desktop/Main-page" transform="translate(-174.000000, -618.000000)" fill="#201E1E" fill-rule="nonzero">
            <g id="Bottom-bar-(Sticky)" transform="translate(30.000000, 615.000000)">
                <g id="Social-links" transform="translate(0.000000, 3.000000)">
                    <g id="Github" transform="translate(144.000000, 0.000000)">
                        <path d="M9,0 C4.05354308,0 0,4.08869933 0,9.03515625 C0,13.9529114 4.01660156,18 9,18 C13.9772186,18 18,13.9589539 18,9.03515625 C18,4.08869933 13.9464569,0 9,0 Z M10.5820312,16.7871094 C10.0758362,16.8925781 9.53791808,16.9453125 9,16.9453125 C8.46208192,16.9453125 7.92416384,16.8925781 7.41796875,16.7871094 L7.41796875,14.3191681 C7.41796875,13.7285156 7.57617188,13.5175781 7.78710938,13.2327576 C7.89450075,13.1099854 7.95932009,12.9998474 8.44093322,12.2731018 L7.62890625,12.1464844 C5.54054259,11.8406525 4.71794129,10.754242 4.39096071,9.91049196 C3.96908571,8.78205871 4.19059754,7.36866759 4.95002746,6.47232054 C5.06607054,6.33512879 5.16096496,6.10304259 5.07664491,5.86051942 C4.91830446,5.37533571 4.93945312,4.60546875 5.04492188,4.31007384 C5.60412598,4.3899994 6.17912293,4.79058838 6.65867616,5.08007813 C6.87963867,5.20903016 6.99554443,5.17497254 7.1015625,5.18554688 C7.48690798,5.10534668 8.08799745,4.91130067 9.01057433,4.91130067 C9.58007812,4.91130067 10.1813049,4.99562072 10.7719574,5.16439821 C10.8775635,5.16192627 11.0473022,5.25173948 11.3414612,5.08007813 C11.8427124,4.7746582 12.3982086,4.38780213 12.9550781,4.31007384 C13.0605469,4.60546875 13.0816955,5.37533571 12.9234924,5.86051942 C12.839035,6.10304259 12.9339295,6.33512879 13.0501099,6.47232054 C13.8094025,7.36880491 14.0309143,8.78205871 13.6090393,9.91049196 C13.2820587,10.754242 12.4594574,11.8406525 10.3710938,12.1464844 L9.55906678,12.2731018 C10.0568848,13.024292 10.1093445,13.1143799 10.2130279,13.2327576 C10.4238281,13.5175781 10.5820312,13.7285156 10.5820312,14.3191681 L10.5820312,16.7871094 Z M11.6367188,16.4812775 L11.6367188,14.3191681 C11.6367188,13.7179413 11.5101013,13.317215 11.3413238,13.0218201 C12.9445038,12.589508 14.0836487,11.640152 14.5898438,10.2796326 C15.1277618,8.84536741 14.8852387,7.13671875 13.988617,5.95541384 C14.1469574,5.24885558 14.1469574,4.12028504 13.7672424,3.59294129 C13.598465,3.36099241 13.3663788,3.234375 13.0711212,3.234375 C13.0605469,3.234375 13.0605469,3.234375 13.0605469,3.234375 C12.2427521,3.27859495 11.5990906,3.69044494 10.9090118,4.10971071 C10.2761993,3.94093322 9.6328125,3.85661317 8.98942567,3.85661317 C8.33560179,3.85661317 7.68164063,3.95150759 7.10169982,4.10971071 C6.37522889,3.67163086 5.73774718,3.27749632 4.89729308,3.234375 C4.63362121,3.234375 4.40153504,3.36099241 4.23275759,3.59294129 C3.85317991,4.12028504 3.85317991,5.24885558 4.01138304,5.95541384 C3.11476134,7.13671875 2.87223817,8.85580446 3.41015625,10.2796326 C3.91635134,11.640152 5.05549621,12.589508 6.65867616,13.0218201 C6.52780153,13.2507477 6.42425537,13.5461426 6.38346864,13.9459076 C6.0596466,14.0575562 5.77880859,14.0939484 5.51760863,14.0171814 C5.24212646,13.9357452 5.02748107,13.7518616 4.84098817,13.4382019 C4.42213439,12.7345276 3.70870973,12.16008 2.89640809,12.234787 L2.98910524,13.2853546 C3.36524963,13.250885 3.73960877,13.6488647 3.93406678,13.976944 C4.25486756,14.5171967 4.68704222,14.8715057 5.21891786,15.0286102 C5.61373903,15.144928 5.97463988,15.1421814 6.36328125,15.0592346 L6.36328125,16.4812775 C3.29411317,15.4054413 1.0546875,12.473465 1.0546875,9.03515625 C1.0546875,4.66877746 4.63362121,1.0546875 9,1.0546875 C13.3663788,1.0546875 16.9453125,4.66877746 16.9453125,9.03515625 C16.9453125,12.473465 14.7058868,15.4054413 11.6367188,16.4812775 Z" id="Shape"></path>
                    </g>
                </g>
            </g>
        </g>
    </g>
</svg>