<?xml version="1.0" encoding="UTF-8"?>
<svg width="135px" height="36px" viewBox="0 0 135 36" version="1.1" xmlns="http://www.w3.org/2000/svg" xmlns:xlink="http://www.w3.org/1999/xlink">
    <title>logo</title>
    <g id="Page-1" stroke="none" stroke-width="1" fill="none" fill-rule="evenodd">
        <g id="Desktop/Main-page" transform="translate(-30.000000, -20.000000)" fill="#201E1E">
            <g id="logo" transform="translate(30.441712, 20.000000)">
                <g id="Group-7" transform="translate(48.000000, 0.000000)" fill-rule="nonzero">
                    <polygon id="Path" points="8.34574 12.9658501 0 12.9658501 0 0.231201092 1.32615 0.231201092 1.32615 11.7428501 8.30586 11.7428501"></polygon>
                    <path d="M10.8584,12.9658501 L9.47247,12.9658501 L15.0762,0.150360092 L16.3126,0.150360092 L21.9362,12.9658501 L20.5303,12.9658501 L18.9449,9.44866009 L12.384,9.44866009 L10.8584,12.9658501 Z M15.6844,1.84831009 L12.8327,8.26616009 L18.5361,8.26616009 L15.6844,1.84831009 Z" id="Shape"></path>
                    <polygon id="Path" points="25.5258 12.9658501 24.2296 12.9658501 24.2296 0.231201092 25.3762 0.231201092 33.353 10.6311501 33.353 0.231201092 34.5994 0.231201092 34.5994 12.9658501 33.4727 12.9658501 25.4959 2.51535009"></polygon>
                    <polygon id="Path" points="42.666 12.9658501 41.3298 12.9658501 41.3298 1.44402009 37.0124 1.44402009 37.0124 0.231201092 47.0432 0.231201092 47.0432 1.44402009 42.666 1.44402009"></polygon>
                    <path d="M53.1755,13.1478501 C52.2914,13.1525501 51.4113,13.0265501 50.563,12.7738501 C49.8437,12.5614501 49.1681,12.2190501 48.5688,11.7632501 L48.5688,10.3280501 C49.167,10.8124501 49.8411,11.1916501 50.563,11.4498501 C51.3971,11.7588501 52.2775,11.9195501 53.1655,11.9249501 C54.0266,11.9616501 54.8785,11.7325501 55.6084,11.2679501 C55.9112,11.0907501 56.1628,10.8358501 56.3378,10.5289501 C56.5128,10.2221501 56.6051,9.87396009 56.6055,9.51948009 C56.6269,9.16369009 56.5436,8.80947009 56.366,8.50177009 C56.1885,8.19406009 55.9248,7.94675009 55.6084,7.79121009 C55.3776,7.63425009 55.1257,7.51172009 54.8606,7.42737009 L54.0629,7.15448009 L53.684,7.08373009 C53.5654,7.05448009 53.4488,7.01734009 53.335,6.97256009 L52.9461,6.86138009 L51.62,6.45711009 C51.2391,6.32830009 50.8662,6.17642009 50.5032,6.00230009 C50.1603,5.84569009 49.8466,5.63028009 49.5759,5.36557009 C49.0594,4.82350009 48.773,4.09782009 48.7782,3.34420009 C48.7655,2.87845009 48.864,2.41648009 49.0654,1.99765009 C49.2668,1.57882009 49.5651,1.21555009 49.9349,0.938774092 C50.8624,0.268437092 51.9885,-0.0597106079 53.1256,0.00894482344 C54.4968,-0.0380300079 55.8528,0.312592092 57.0342,1.01963009 L57.0342,2.44469009 C55.8799,1.68187009 54.5335,1.27141009 53.1555,1.26219009 C52.3653,1.21120009 51.5795,1.41651009 50.912,1.84839009 C50.6697,2.01063009 50.4709,2.23129009 50.3334,2.49059009 C50.1959,2.74989009 50.1241,3.03972009 50.1243,3.33410009 C50.0545,3.81922009 50.3237,4.34478009 50.932,4.77937009 C51.1155,4.90503009 51.3174,5.00054009 51.5302,5.06237009 L52.1385,5.30493009 L52.9062,5.51717009 L53.664,5.73952009 C54.3221,5.94166009 54.7309,6.08316009 54.9004,6.14380009 C55.277,6.27870009 55.6436,6.44082009 55.9973,6.62893009 C56.3652,6.80427009 56.702,7.03988009 56.9944,7.32630009 C57.2807,7.60769009 57.5037,7.94839009 57.6483,8.32515009 C57.7928,8.70190009 57.8555,9.10584009 57.8319,9.50938009 C57.8476,10.0370501 57.7315,10.5600501 57.4945,11.0300501 C57.2574,11.5000501 56.907,11.9017501 56.4759,12.1977501 C55.5037,12.8628501 54.3474,13.1956501 53.1755,13.1478501 Z" id="Path"></path>
                    <path d="M61.8203,1.89882009 C63.0183,0.688536092 64.6408,0.00894164484 66.3322,0.00894164484 C68.0236,0.00894164484 69.6461,0.688536092 70.8441,1.89882009 C71.4423,2.51859009 71.9113,3.25412009 72.2231,4.06155009 C72.5349,4.86898009 72.6831,5.73178009 72.6588,6.59851009 C72.6779,7.47049009 72.5225,8.33736009 72.202,9.14682009 C71.8816,9.95628009 71.4027,10.6915501 70.7942,11.3082501 C69.5899,12.5064501 67.9698,13.1776501 66.2823,13.1776501 C64.5949,13.1776501 62.9748,12.5064501 61.7705,11.3082501 C61.1764,10.6843501 60.7116,9.94616009 60.4034,9.13729009 C60.0951,8.32843009 59.9497,7.46522009 59.9757,6.59851009 C59.9571,5.72986009 60.1107,4.86628009 60.4276,4.05898009 C60.7445,3.25167009 61.2181,2.51710009 61.8203,1.89882009 Z M62.8174,10.3986501 C63.2751,10.8807501 63.8241,11.2642501 64.4314,11.5261501 C65.0388,11.7881501 65.6921,11.9231501 66.3521,11.9231501 C67.0122,11.9231501 67.6655,11.7881501 68.2728,11.5261501 C68.8802,11.2642501 69.4292,10.8807501 69.8869,10.3986501 C70.8409,9.37331009 71.357,8.00755009 71.3227,6.59851009 C71.3585,5.18618009 70.8425,3.81670009 69.8869,2.78823009 C69.4292,2.30616009 68.8802,1.92267009 68.2728,1.66072009 C67.6655,1.39878009 67.0122,1.26376009 66.3521,1.26376009 C65.6921,1.26376009 65.0388,1.39878009 64.4314,1.66072009 C63.8241,1.92267009 63.2751,2.30616009 62.8174,2.78823009 C61.8618,3.81670009 61.3457,5.18618009 61.3816,6.59851009 C61.3473,8.00755009 61.8633,9.37331009 62.8174,10.3986501 Z" id="Shape"></path>
                    <polygon id="Path" points="80.4561 13.0365501 79.2197 13.0365501 73.6958 0.231201092 75.1416 0.231201092 79.8479 11.1769501 84.5542 0.231201092 86 0.231201092"></polygon>
                    <path d="M4.10806,34.7966501 L0,34.7966501 L0,22.0620501 L4.10806,22.0620501 C5.91014,21.9762501 7.674,22.6073501 9.02377,23.8205501 C9.64238,24.4093501 10.1303,25.1248501 10.4553,25.9194501 C10.7802,26.7140501 10.9346,27.5695501 10.9083,28.4293501 C10.9397,29.2882501 10.7875,30.1438501 10.4623,30.9375501 C10.137,31.7312501 9.64629,32.4443501 9.02377,33.0279501 C7.67554,34.2448501 5.91151,34.8795501 4.10806,34.7966501 Z M1.32614,23.2546501 L1.32614,33.5737501 L3.98841,33.5737501 C5.48469,33.6557501 6.95501,33.1529501 8.09646,32.1688501 C8.602,31.6951501 8.99884,31.1146501 9.25898,30.4685501 C9.51913,29.8224501 9.63625,29.1263501 9.60209,28.4293501 C9.63636,27.7308501 9.51933,27.0331501 9.25922,26.3853501 C8.99912,25.7375501 8.60224,25.1553501 8.09646,24.6796501 C6.95801,23.6883501 5.48737,23.1781501 3.98841,23.2546501 L1.32614,23.2546501 Z" id="Shape"></path>
                    <polygon id="Path" points="22.8436 34.7966501 13.9594 34.7966501 13.9594 22.0619501 22.5744 22.0619501 22.5744 23.2545501 15.2955 23.2545501 15.2955 27.2973501 21.2781 27.2973501 21.2781 28.5202501 15.2955 28.5202501 15.2955 33.5231501 22.8436 33.5231501"></polygon>
                    <path d="M29.1852,35.0088501 C28.301,35.0143501 27.4208,34.8883501 26.5728,34.6348501 C25.8514,34.4276501 25.1749,34.0847501 24.5786,33.6242501 L24.5786,32.1587501 C25.1737,32.6476501 25.8486,33.0273501 26.5728,33.2805501 C27.4063,33.5912501 28.287,33.7520501 29.1752,33.7556501 C30.036,33.7897501 30.8872,33.5608501 31.6181,33.0986501 C31.8984,32.9045501 32.1252,32.6412501 32.277,32.3334501 C32.4288,32.0257501 32.5006,31.6837501 32.4856,31.3400501 C32.507,30.9842501 32.4236,30.6300501 32.2461,30.3223501 C32.0686,30.0146501 31.8049,29.7673501 31.4885,29.6117501 C31.255,29.4531501 30.9996,29.3305501 30.7307,29.2479501 L29.913,28.9851501 L29.6937,28.9245501 L29.3447,28.8133501 L28.9159,28.7021501 L27.6197,28.3080501 C27.2427,28.1774501 26.8732,28.0255501 26.5129,27.8532501 C26.167,27.6965501 25.8501,27.4812501 25.5757,27.2164501 C25.2946,26.9089501 25.0795,26.5456501 24.9439,26.1496501 C24.8083,25.7535501 24.7553,25.3332501 24.7881,24.9153501 C24.8209,24.4974501 24.9388,24.0910501 25.1344,23.7216501 C25.3301,23.3523501 25.5991,23.0280501 25.9246,22.7694501 C26.8522,22.0991501 27.9782,21.7709501 29.1154,21.8396501 C30.4897,21.7929501 31.8488,22.1435501 33.034,22.8503501 L33.034,24.2652501 C31.8784,23.5050501 30.5328,23.0948501 29.1552,23.0827501 C28.365,23.0317501 27.5792,23.2370501 26.9118,23.6689501 C26.6675,23.8291501 26.4672,24.0494501 26.3295,24.3091501 C26.1918,24.5689501 26.1211,24.8597501 26.1241,25.1546501 C26.0543,25.6398501 26.3235,26.1653501 26.9317,26.5999501 C27.1101,26.7281501 27.3092,26.8239501 27.52,26.8829501 L28.1282,27.1255501 L28.906,27.3377501 L29.6538,27.5601501 C30.3119,27.7622501 30.7307,27.9037501 30.9002,27.9643501 C31.2735,28.0994501 31.6367,28.2615501 31.987,28.4495501 C32.3525,28.6291501 32.6887,28.8643501 32.9841,29.1468501 C33.2841,29.4237501 33.5213,29.7630501 33.6797,30.1416501 C33.838,30.5202501 33.9137,30.9290501 33.9014,31.3400501 C33.9151,31.8684501 33.7971,32.3918501 33.5584,32.8617501 C33.3196,33.3316501 32.9678,33.7329501 32.5354,34.0284501 C31.554,34.7167501 30.3775,35.0609501 29.1852,35.0088501 Z" id="Path"></path>
                    <polygon id="Path" points="38.1391 34.7966501 36.813 34.7966501 36.813 22.0619501 38.1391 22.0619501"></polygon>
                    <path d="M47.6515,35.0088501 C46.797,35.0301501 45.9473,34.8738501 45.1546,34.5497501 C44.362,34.2255501 43.6432,33.7403501 43.0426,33.1239501 C42.442,32.5075501 41.9722,31.7730501 41.6622,30.9656501 C41.3522,30.1582501 41.2085,29.2950501 41.2401,28.4293501 C41.2113,27.5603501 41.358,26.6945501 41.6714,25.8852501 C41.9847,25.0758501 42.4581,24.3399501 43.0623,23.7227501 C43.6665,23.1056501 44.3888,22.6202501 45.1848,22.2963501 C45.9809,21.9725501 46.8339,21.8171501 47.6914,21.8396501 C49.1182,21.7850501 50.5221,22.2154501 51.6798,23.0625501 L51.6798,24.4270501 C50.561,23.5511501 49.1846,23.0814501 47.7711,23.0928501 C47.0848,23.0737501 46.4019,23.1985501 45.7653,23.4594501 C45.1288,23.7202501 44.5523,24.1116501 44.0719,24.6089501 C43.5821,25.1123501 43.1987,25.7116501 42.945,26.3701501 C42.6913,27.0287501 42.5726,27.7328501 42.5962,28.4394501 C42.5731,29.1426501 42.6901,29.8434501 42.9402,30.4998501 C43.1903,31.1562501 43.5684,31.7548501 44.0519,32.2598501 C44.5204,32.7464501 45.0825,33.1303501 45.7034,33.3876501 C46.3243,33.6450501 46.9908,33.7702501 47.6614,33.7556501 C48.3138,33.7907501 48.9665,33.6915501 49.58,33.4640501 C50.1935,33.2364501 50.7552,32.8852501 51.2311,32.4316501 L51.2311,27.4792501 L52.5472,27.4792501 L52.5472,32.9571501 C51.9613,33.6090501 51.2391,34.1201501 50.4334,34.4529501 C49.554,34.8312501 48.6067,35.0204501 47.6515,35.0088501 Z" id="Path"></path>
                    <polygon id="Path" points="57.0541 34.7966501 55.7679 34.7966501 55.7679 22.0619501 56.9146 22.0619501 64.8914 32.4619501 64.8914 22.0619501 66.1876 22.0619501 66.1876 34.7966501 65.011 34.7966501 57.0342 24.3461501"></polygon>
                    <path d="M70.0165,34.8977501 C69.8047,34.8956501 69.6001,34.8193501 69.4375,34.6817501 C69.2749,34.5441501 69.1643,34.3537501 69.1244,34.1429501 C69.0846,33.9320501 69.1179,33.7136501 69.2188,33.5249501 C69.3197,33.3361501 69.482,33.1886501 69.678,33.1073501 C69.8741,33.0260501 70.0918,33.0160501 70.2943,33.0789501 C70.4968,33.1419501 70.6716,33.2739501 70.789,33.4526501 C70.9064,33.6314501 70.9591,33.8457501 70.9382,34.0594501 C70.9174,34.2731501 70.8242,34.4728501 70.6746,34.6248501 C70.589,34.7133501 70.4865,34.7832501 70.3734,34.8301501 C70.2602,34.8770501 70.1388,34.9000501 70.0165,34.8977501 Z" id="Path"></path>
                </g>
                <polyline id="Path-5" points="14.5235156 28.7483078 14.5235156 25.1095181 17.5173161 25.1095181 17.5173161 28.7483078 17.5173161 31.7535656 7.08404899e-14 31.7535656 16.1267036 3 29.9728393 31.8282012 26.6282053 31.8282012 16.0574968 9.77336918 5.11158312 28.7483078"></polyline>
            </g>
        </g>
    </g>
</svg>