<?xml version="1.0" encoding="UTF-8"?>
<svg width="18px" height="16px" viewBox="0 0 18 16" version="1.1" xmlns="http://www.w3.org/2000/svg" xmlns:xlink="http://www.w3.org/1999/xlink">
    <title>Telegramm</title>
    <g id="Page-1" stroke="none" stroke-width="1" fill="none" fill-rule="evenodd">
        <g id="Desktop/Main-page" transform="translate(-126.000000, -619.000000)" fill="#201E1E" fill-rule="nonzero">
            <g id="Bottom-bar-(Sticky)" transform="translate(30.000000, 615.000000)">
                <g id="Social-links" transform="translate(0.000000, 3.000000)">
                    <g id="Telegramm" transform="translate(96.000000, 1.000000)">
                        <path d="M0.310645033,7.76940099 L4.71252116,9.99766863 C4.88277604,10.0829903 5.0837818,10.0768959 5.24653646,9.98014721 L9.16464873,7.66655787 L6.79308077,9.801124 C6.67232731,9.91006153 6.60332534,10.0654689 6.60332534,10.2292561 L6.60332534,15.4285473 C6.60332534,15.9770439 7.29259509,16.2078696 7.61585435,15.7721195 L9.51865887,13.202565 L14.2242937,15.9244796 C14.5543032,16.1172153 14.9773153,15.9237178 15.0538175,15.540532 L17.9886516,0.685414405 C18.0764041,0.238999077 17.6391415,-0.125141754 17.2326299,0.0409308425 L0.357146366,6.72573376 C-0.0958666145,6.90551877 -0.125117453,7.54924053 0.310645033,7.76940099 Z M16.6836142,1.48530535 L14.1042903,14.5402874 L9.6454125,11.9608296 C9.40240554,11.8198964 9.08964658,11.8823641 8.91714163,12.1139515 L7.72835757,13.719066 L7.72835757,10.485983 L14.1417913,4.71457938 C14.6495559,4.25826064 14.0660392,3.44694267 13.4862726,3.79280028 L4.94352778,8.83744586 L1.94944199,7.32222386 L16.6836142,1.48530535 Z" id="Shape"></path>
                    </g>
                </g>
            </g>
        </g>
    </g>
</svg>