<svg width="80" height="58" viewBox="0 0 80 58" fill="none" xmlns="http://www.w3.org/2000/svg">
<rect width="1" height="40" transform="matrix(-1 0 0 1 1 17.9998)" fill="#E2E2E2"/>
<rect width="0.999999" height="80" transform="matrix(1.19249e-08 -1 -1 -1.19249e-08 80 19)" fill="#E2E2E2"/>
<path d="M28.2285 10.2012V11.082C26.9681 11.7409 26.0658 12.4284 25.5215 13.1445C24.9772 13.8607 24.7051 14.6413 24.7051 15.4863C24.7051 15.9876 24.7767 16.3314 24.9199 16.5176C25.0488 16.7181 25.2064 16.8184 25.3926 16.8184C25.5788 16.8184 25.8294 16.7682 26.1445 16.668C26.4596 16.5534 26.7461 16.4961 27.0039 16.4961C27.5911 16.4961 28.0996 16.7181 28.5293 17.1621C28.9733 17.5918 29.1953 18.1217 29.1953 18.752C29.1953 19.4395 28.9303 20.0339 28.4004 20.5352C27.8704 21.0221 27.2116 21.2656 26.4238 21.2656C25.4642 21.2656 24.5977 20.8503 23.8242 20.0195C23.0508 19.1888 22.6641 18.1647 22.6641 16.9473C22.6641 15.515 23.1367 14.1829 24.082 12.9512C25.0417 11.7051 26.4238 10.7884 28.2285 10.2012ZM38.4766 10.2656V11.082C37.0299 11.9128 36.0775 12.6576 35.6191 13.3164C35.1608 13.9753 34.9316 14.7487 34.9316 15.6367C34.9316 16.0378 35.0104 16.3385 35.168 16.5391C35.3255 16.7396 35.4902 16.8398 35.6621 16.8398C35.8197 16.8398 36.056 16.7826 36.3711 16.668C36.6862 16.5534 37.0013 16.4961 37.3164 16.4961C37.9036 16.4961 38.4121 16.7109 38.8418 17.1406C39.2858 17.556 39.5078 18.0716 39.5078 18.6875C39.5078 19.3893 39.2285 19.998 38.6699 20.5137C38.1257 21.0293 37.4525 21.2871 36.6504 21.2871C35.7051 21.2871 34.8529 20.8789 34.0938 20.0625C33.3346 19.2461 32.9551 18.2292 32.9551 17.0117C32.9551 15.5078 33.4349 14.14 34.3945 12.9082C35.3542 11.6621 36.7148 10.7812 38.4766 10.2656Z" fill="black"/>
</svg>
