<svg width="140" height="83" viewBox="0 0 140 83" fill="none" xmlns="http://www.w3.org/2000/svg">
<rect width="1" height="60" transform="matrix(-1 0 0 1 1 22.9998)" fill="#E2E2E2"/>
<rect width="0.999999" height="140" transform="matrix(1.19249e-08 -1 -1 -1.19249e-08 140 23.9998)" fill="#E2E2E2"/>
<path d="M30.7207 14.3652V15.5664C29.002 16.4648 27.7715 17.4023 27.0293 18.3789C26.2871 19.3555 25.916 20.4199 25.916 21.5723C25.916 22.2559 26.0137 22.7246 26.209 22.9785C26.3848 23.252 26.5996 23.3887 26.8535 23.3887C27.1074 23.3887 27.4492 23.3203 27.8789 23.1836C28.3086 23.0273 28.6992 22.9492 29.0508 22.9492C29.8516 22.9492 30.5449 23.252 31.1309 23.8574C31.7363 24.4434 32.0391 25.166 32.0391 26.0254C32.0391 26.9629 31.6777 27.7734 30.9551 28.457C30.2324 29.1211 29.334 29.4531 28.2598 29.4531C26.9512 29.4531 25.7695 28.8867 24.7148 27.7539C23.6602 26.6211 23.1328 25.2246 23.1328 23.5645C23.1328 21.6113 23.7773 19.7949 25.0664 18.1152C26.375 16.416 28.2598 15.166 30.7207 14.3652ZM44.6953 14.4531V15.5664C42.7227 16.6992 41.4238 17.7148 40.7988 18.6133C40.1738 19.5117 39.8613 20.5664 39.8613 21.7773C39.8613 22.3242 39.9688 22.7344 40.1836 23.0078C40.3984 23.2812 40.623 23.418 40.8574 23.418C41.0723 23.418 41.3945 23.3398 41.8242 23.1836C42.2539 23.0273 42.6836 22.9492 43.1133 22.9492C43.9141 22.9492 44.6074 23.2422 45.1934 23.8281C45.7988 24.3945 46.1016 25.0977 46.1016 25.9375C46.1016 26.8945 45.7207 27.7246 44.959 28.4277C44.2168 29.1309 43.2988 29.4824 42.2051 29.4824C40.916 29.4824 39.7539 28.9258 38.7188 27.8125C37.6836 26.6992 37.166 25.3125 37.166 23.6523C37.166 21.6016 37.8203 19.7363 39.1289 18.0566C40.4375 16.3574 42.293 15.1562 44.6953 14.4531Z" fill="black"/>
</svg>
