<svg width="80" height="76" viewBox="0 0 80 76" fill="none" xmlns="http://www.w3.org/2000/svg">
<rect width="0.999996" height="40" transform="matrix(1 8.74228e-08 8.74228e-08 -1 79 40)" fill="#E2E2E2"/>
<rect width="0.999992" height="80" transform="matrix(-9.93477e-08 1 1 9.93477e-08 0 39)" fill="#E2E2E2"/>
<path d="M41.6953 46.2871V45.3848C43.1419 44.5684 44.0872 43.8307 44.5312 43.1719C44.9896 42.4987 45.2188 41.7253 45.2188 40.8516C45.2188 40.4505 45.1471 40.1497 45.0039 39.9492C44.8464 39.7487 44.6745 39.6484 44.4883 39.6484C44.3451 39.6484 44.1159 39.7057 43.8008 39.8203C43.4857 39.9349 43.1706 39.9922 42.8555 39.9922C42.2539 39.9922 41.7383 39.7773 41.3086 39.3477C40.8789 38.918 40.6641 38.3952 40.6641 37.7793C40.6641 37.0918 40.9362 36.4902 41.4805 35.9746C42.0391 35.459 42.7122 35.2012 43.5 35.2012C44.4453 35.2012 45.2975 35.6094 46.0566 36.4258C46.8301 37.2422 47.2168 38.2734 47.2168 39.5195C47.2168 41.0234 46.7298 42.3984 45.7559 43.6445C44.7962 44.8906 43.4427 45.7715 41.6953 46.2871ZM51.9434 46.2871V45.3848C53.1895 44.7402 54.0846 44.0599 54.6289 43.3438C55.1875 42.6133 55.4668 41.8255 55.4668 40.9805C55.4668 40.4792 55.3952 40.1283 55.252 39.9277C55.1087 39.7415 54.9512 39.6484 54.7793 39.6484C54.5931 39.6484 54.3424 39.7057 54.0273 39.8203C53.6979 39.9349 53.4115 39.9922 53.168 39.9922C52.5807 39.9922 52.0651 39.7702 51.6211 39.3262C51.1914 38.8822 50.9766 38.3522 50.9766 37.7363C50.9766 37.0488 51.2415 36.4544 51.7715 35.9531C52.3014 35.4518 52.9531 35.2012 53.7266 35.2012C54.7005 35.2012 55.5742 35.6237 56.3477 36.4688C57.1211 37.2995 57.5078 38.3236 57.5078 39.541C57.5078 40.9733 57.028 42.3125 56.0684 43.5586C55.123 44.7904 53.748 45.6999 51.9434 46.2871Z" fill="black"/>
</svg>
