<svg width="140" height="108" viewBox="0 0 140 108" fill="none" xmlns="http://www.w3.org/2000/svg">
<rect width="1" height="60" transform="matrix(1 8.74228e-08 8.74228e-08 -1 139 60)" fill="#E2E2E2"/>
<rect width="0.999999" height="140" transform="matrix(-9.93477e-08 1 1 9.93477e-08 0 59)" fill="#E2E2E2"/>
<path d="M95.5391 68.4824V67.252C97.5117 66.1387 98.8008 65.1328 99.4062 64.2344C100.031 63.3164 100.344 62.2617 100.344 61.0703C100.344 60.5234 100.246 60.1133 100.051 59.8398C99.8359 59.5664 99.6016 59.4297 99.3477 59.4297C99.1523 59.4297 98.8398 59.5078 98.4102 59.6641C97.9805 59.8203 97.5508 59.8984 97.1211 59.8984C96.3008 59.8984 95.5977 59.6055 95.0117 59.0195C94.4258 58.4336 94.1328 57.7207 94.1328 56.8809C94.1328 55.9434 94.5039 55.123 95.2461 54.4199C96.0078 53.7168 96.9258 53.3652 98 53.3652C99.2891 53.3652 100.451 53.9219 101.486 55.0352C102.541 56.1484 103.068 57.5547 103.068 59.2539C103.068 61.3047 102.404 63.1797 101.076 64.8789C99.7676 66.5781 97.9219 67.7793 95.5391 68.4824ZM109.514 68.4824V67.252C111.213 66.373 112.434 65.4453 113.176 64.4688C113.938 63.4727 114.318 62.3984 114.318 61.2461C114.318 60.5625 114.221 60.084 114.025 59.8105C113.83 59.5566 113.615 59.4297 113.381 59.4297C113.127 59.4297 112.785 59.5078 112.355 59.6641C111.906 59.8203 111.516 59.8984 111.184 59.8984C110.383 59.8984 109.68 59.5957 109.074 58.9902C108.488 58.3848 108.195 57.6621 108.195 56.8223C108.195 55.8848 108.557 55.0742 109.279 54.3906C110.002 53.707 110.891 53.3652 111.945 53.3652C113.273 53.3652 114.465 53.9414 115.52 55.0938C116.574 56.2266 117.102 57.623 117.102 59.2832C117.102 61.2363 116.447 63.0625 115.139 64.7617C113.85 66.4414 111.975 67.6816 109.514 68.4824Z" fill="black"/>
</svg>
