<svg width="86" height="35" viewBox="0 0 86 35" fill="none" xmlns="http://www.w3.org/2000/svg">
<g clip-path="url(#clip0)">
<path d="M8.34574 12.957H0V0.222351H1.32615V11.734H8.30586L8.34574 12.957Z" fill="#222222"/>
<path d="M10.8584 12.957H9.47247L15.0762 0.14151H16.3126L21.9362 12.957H20.5303L18.9449 9.43981H12.384L10.8584 12.957ZM15.6844 1.83946L12.8327 8.25731H18.5361L15.6844 1.83946Z" fill="#222222"/>
<path d="M25.5258 12.957H24.2296V0.222351H25.3762L33.353 10.6223V0.222351H34.5994V12.957H33.4727L25.4959 2.5065L25.5258 12.957Z" fill="#222222"/>
<path d="M42.666 12.957H41.3298V1.43517H37.0124V0.222351H47.0432V1.43517H42.666V12.957Z" fill="#222222"/>
<path d="M53.1755 13.139C52.2914 13.1437 51.4113 13.0177 50.563 12.765C49.8437 12.5526 49.1681 12.2102 48.5688 11.7544V10.3192C49.167 10.8036 49.8411 11.1828 50.563 11.441C51.3971 11.75 52.2775 11.9107 53.1655 11.9161C54.0266 11.9528 54.8785 11.7237 55.6084 11.2591C55.9112 11.0819 56.1628 10.827 56.3378 10.5201C56.5128 10.2133 56.6051 9.86511 56.6055 9.51063C56.6269 9.15484 56.5436 8.80062 56.366 8.49292C56.1885 8.18521 55.9248 7.9379 55.6084 7.78236C55.3776 7.6254 55.1257 7.50287 54.8606 7.41852L54.0629 7.14563L53.684 7.07488C53.5654 7.04563 53.4488 7.00849 53.335 6.96371L52.9461 6.85253L51.62 6.44826C51.2391 6.31945 50.8662 6.16757 50.5032 5.99345C50.1603 5.83684 49.8466 5.62143 49.5759 5.35672C49.0594 4.81465 48.773 4.08897 48.7782 3.33535C48.7655 2.8696 48.864 2.40763 49.0654 1.9888C49.2668 1.56997 49.5651 1.2067 49.9349 0.929924C50.8624 0.259587 51.9885 -0.0685607 53.1256 9.47313e-05C54.4968 -0.0468801 55.8528 0.303742 57.0342 1.01078V2.43584C55.8799 1.67302 54.5335 1.26256 53.1555 1.25334C52.3653 1.20235 51.5795 1.40766 50.912 1.83954C50.6697 2.00178 50.4709 2.22244 50.3334 2.48174C50.1959 2.74104 50.1241 3.03087 50.1243 3.32525C50.0545 3.81037 50.3237 4.33593 50.932 4.77052C51.1155 4.89618 51.3174 4.99169 51.5302 5.05352L52.1385 5.29608L52.9062 5.50832L53.664 5.73067C54.3221 5.93281 54.7309 6.07431 54.9004 6.13495C55.277 6.26985 55.6436 6.43197 55.9973 6.62008C56.3652 6.79542 56.702 7.03103 56.9944 7.31745C57.2807 7.59884 57.5037 7.93954 57.6483 8.3163C57.7928 8.69305 57.8555 9.09699 57.8319 9.50053C57.8476 10.0282 57.7315 10.5512 57.4945 11.0212C57.2574 11.4912 56.907 11.8929 56.4759 12.1889C55.5037 12.854 54.3474 13.1868 53.1755 13.139Z" fill="#222222"/>
<path d="M61.8203 1.88997C63.0183 0.679686 64.6408 9.15527e-05 66.3322 9.15527e-05C68.0236 9.15527e-05 69.6461 0.679686 70.8441 1.88997C71.4423 2.50974 71.9113 3.24527 72.2231 4.0527C72.5349 4.86013 72.6831 5.72293 72.6588 6.58966C72.6779 7.46164 72.5225 8.32851 72.202 9.13797C71.8816 9.94743 71.4027 10.6827 70.7942 11.2994C69.5899 12.4976 67.9698 13.1688 66.2823 13.1688C64.5949 13.1688 62.9748 12.4976 61.7705 11.2994C61.1764 10.6755 60.7116 9.93731 60.4034 9.12844C60.0951 8.31958 59.9497 7.45637 59.9757 6.58966C59.9571 5.72101 60.1107 4.85743 60.4276 4.05013C60.7445 3.24282 61.2181 2.50825 61.8203 1.88997ZM62.8174 10.3898C63.2751 10.8719 63.8241 11.2554 64.4314 11.5173C65.0388 11.7793 65.6921 11.9143 66.3521 11.9143C67.0122 11.9143 67.6655 11.7793 68.2728 11.5173C68.8802 11.2554 69.4292 10.8719 69.8869 10.3898C70.8409 9.36446 71.357 7.9987 71.3227 6.58966C71.3585 5.17733 70.8425 3.80785 69.8869 2.77938C69.4292 2.29731 68.8802 1.91382 68.2728 1.65187C67.6655 1.38993 67.0122 1.25491 66.3521 1.25491C65.6921 1.25491 65.0388 1.38993 64.4314 1.65187C63.8241 1.91382 63.2751 2.29731 62.8174 2.77938C61.8618 3.80785 61.3457 5.17733 61.3816 6.58966C61.3473 7.9987 61.8633 9.36446 62.8174 10.3898Z" fill="#222222"/>
<path d="M80.4561 13.0277H79.2197L73.6958 0.222351H75.1416L79.8479 11.1681L84.5542 0.222351H86L80.4561 13.0277Z" fill="#222222"/>
<path d="M4.10806 34.7878H0V22.0532H4.10806C5.91014 21.9674 7.674 22.5985 9.02377 23.8117C9.64238 24.4005 10.1303 25.116 10.4553 25.9106C10.7802 26.7052 10.9346 27.5607 10.9083 28.4205C10.9397 29.2794 10.7875 30.135 10.4623 30.9287C10.137 31.7224 9.64629 32.4355 9.02377 33.0191C7.67554 34.236 5.91151 34.8707 4.10806 34.7878ZM1.32614 23.2458V33.5649H3.98841C5.48469 33.6469 6.95501 33.1441 8.09646 32.16C8.602 31.6863 8.99884 31.1058 9.25898 30.4597C9.51913 29.8136 9.63625 29.1175 9.60209 28.4205C9.63636 27.722 9.51933 27.0243 9.25922 26.3765C8.99912 25.7287 8.60224 25.1465 8.09646 24.6708C6.95801 23.6795 5.48737 23.1693 3.98841 23.2458H1.32614Z" fill="#222222"/>
<path d="M22.8436 34.7878H13.9594V22.0531H22.5744V23.2457H15.2955V27.2885H21.2781V28.5114H15.2955V33.5143H22.8436V34.7878Z" fill="#222222"/>
<path d="M29.1852 35C28.301 35.0055 27.4208 34.8795 26.5728 34.626C25.8514 34.4188 25.1749 34.0759 24.5786 33.6154V32.1499C25.1737 32.6388 25.8486 33.0185 26.5728 33.2717C27.4063 33.5824 28.287 33.7432 29.1752 33.7468C30.036 33.7809 30.8872 33.552 31.6181 33.0898C31.8984 32.8957 32.1252 32.6324 32.277 32.3246C32.4288 32.0169 32.5006 31.6749 32.4856 31.3312C32.507 30.9754 32.4236 30.6212 32.2461 30.3135C32.0686 30.0058 31.8049 29.7585 31.4885 29.6029C31.255 29.4443 30.9996 29.3217 30.7307 29.2391L29.913 28.9763L29.6937 28.9157L29.3447 28.8045L28.9159 28.6933L27.6197 28.2992C27.2427 28.1686 26.8732 28.0167 26.5129 27.8444C26.167 27.6877 25.8501 27.4724 25.5757 27.2076C25.2946 26.9001 25.0795 26.5368 24.9439 26.1408C24.8083 25.7447 24.7553 25.3244 24.7881 24.9065C24.8209 24.4886 24.9388 24.0822 25.1344 23.7128C25.3301 23.3435 25.5991 23.0192 25.9246 22.7606C26.8522 22.0903 27.9782 21.7621 29.1154 21.8308C30.4897 21.7841 31.8488 22.1347 33.034 22.8415V24.2564C31.8784 23.4962 30.5328 23.086 29.1552 23.0739C28.365 23.0229 27.5792 23.2282 26.9118 23.6601C26.6675 23.8203 26.4672 24.0406 26.3295 24.3003C26.1918 24.5601 26.1211 24.8509 26.1241 25.1458C26.0543 25.631 26.3235 26.1565 26.9317 26.5911C27.1101 26.7193 27.3092 26.8151 27.52 26.8741L28.1282 27.1167L28.906 27.3289L29.6538 27.5513C30.3119 27.7534 30.7307 27.8949 30.9002 27.9555C31.2735 28.0906 31.6367 28.2527 31.987 28.4407C32.3525 28.6203 32.6887 28.8555 32.9841 29.138C33.2841 29.4149 33.5213 29.7542 33.6797 30.1328C33.838 30.5114 33.9137 30.9202 33.9014 31.3312C33.9151 31.8596 33.7971 32.383 33.5584 32.8529C33.3196 33.3228 32.9678 33.7241 32.5354 34.0196C31.554 34.7079 30.3775 35.0521 29.1852 35Z" fill="#222222"/>
<path d="M38.1391 34.7878H36.813V22.0531H38.1391V34.7878Z" fill="#222222"/>
<path d="M47.6515 35C46.797 35.0213 45.9473 34.865 45.1546 34.5409C44.362 34.2167 43.6432 33.7315 43.0426 33.1151C42.442 32.4987 41.9722 31.7642 41.6622 30.9568C41.3522 30.1494 41.2085 29.2862 41.2401 28.4205C41.2113 27.5515 41.358 26.6857 41.6714 25.8764C41.9847 25.067 42.4581 24.3311 43.0623 23.7139C43.6665 23.0968 44.3888 22.6114 45.1848 22.2875C45.9809 21.9637 46.8339 21.8083 47.6914 21.8308C49.1182 21.7762 50.5221 22.2066 51.6798 23.0537V24.4182C50.561 23.5423 49.1846 23.0726 47.7711 23.084C47.0848 23.0649 46.4019 23.1897 45.7653 23.4506C45.1288 23.7114 44.5523 24.1028 44.0719 24.6001C43.5821 25.1035 43.1987 25.7028 42.945 26.3613C42.6913 27.0199 42.5726 27.724 42.5962 28.4306C42.5731 29.1338 42.6901 29.8346 42.9402 30.491C43.1903 31.1474 43.5684 31.746 44.0519 32.251C44.5204 32.7376 45.0825 33.1215 45.7034 33.3788C46.3243 33.6362 46.9908 33.7614 47.6614 33.7468C48.3138 33.7819 48.9665 33.6827 49.58 33.4552C50.1935 33.2276 50.7552 32.8764 51.2311 32.4228V27.4704H52.5472V32.9483C51.9613 33.6002 51.2391 34.1113 50.4334 34.4441C49.554 34.8224 48.6067 35.0116 47.6515 35Z" fill="#222222"/>
<path d="M57.0541 34.7878H55.7679V22.0531H56.9146L64.8914 32.4531V22.0531H66.1876V34.7878H65.011L57.0342 24.3373L57.0541 34.7878Z" fill="#222222"/>
<path d="M70.0165 34.8889C69.8047 34.8868 69.6001 34.8105 69.4375 34.6729C69.2749 34.5353 69.1643 34.3449 69.1244 34.1341C69.0846 33.9232 69.1179 33.7048 69.2188 33.5161C69.3197 33.3273 69.482 33.1798 69.678 33.0985C69.8741 33.0172 70.0918 33.0072 70.2943 33.0701C70.4968 33.1331 70.6716 33.2651 70.789 33.4438C70.9064 33.6226 70.9591 33.8369 70.9382 34.0506C70.9174 34.2643 70.8242 34.464 70.6746 34.616C70.589 34.7045 70.4865 34.7744 70.3734 34.8213C70.2602 34.8682 70.1388 34.8912 70.0165 34.8889Z" fill="#222222"/>
</g>
<defs>
<clipPath id="clip0">
<rect width="86" height="35" fill="white"/>
</clipPath>
</defs>
</svg>
